<svg xmlns="http://www.w3.org/2000/svg" xmlns:xlink="http://www.w3.org/1999/xlink" width="1080" zoomAndPan="magnify" viewBox="0 0 810 116.249996" height="155" preserveAspectRatio="xMidYMid meet" version="1.0"><path fill="#6c708e" d="M 11.320312 113.5625 C 58.875 88.972656 114.359375 83.3125 167.089844 82.019531 C 223.867188 80.5625 280.480469 84.28125 336.933594 89.460938 C 394.03125 94.796875 450.96875 101.429688 508.230469 105.476562 C 536.699219 107.417969 565.332031 108.546875 593.960938 108.710938 C 620.8125 108.871094 647.988281 109.035156 674.839844 105.796875 C 701.851562 102.5625 728.867188 94.960938 749.570312 76.355469 C 767.6875 60.015625 780.789062 35.105469 775.773438 10.351562 C 773.671875 0 757.496094 2.425781 757.496094 12.78125 C 757.65625 34.78125 749.085938 53.382812 732.101562 67.296875 C 713.011719 82.988281 687.457031 88.488281 663.679688 91.402344 C 609.652344 97.710938 554.65625 95.605469 500.46875 91.886719 C 390.472656 84.121094 280.804688 66.164062 170.324219 70.046875 C 114.035156 71.828125 57.097656 78.296875 8.085938 108.0625 C 4.527344 110.167969 7.601562 115.503906 11.320312 113.5625 Z M 11.320312 113.5625 " fill-opacity="1" fill-rule="nonzero"/><path fill="#6c708e" d="M 32.671875 77.648438 C 80.875 60.015625 130.695312 55.8125 181.648438 55.488281 C 184.398438 55.488281 185.367188 50.796875 182.296875 50.472656 C 131.34375 42.871094 78.285156 55.003906 31.539062 75.546875 C 30.570312 76.03125 31.378906 78.136719 32.671875 77.648438 Z M 32.671875 77.648438 " fill-opacity="1" fill-rule="nonzero"/><path fill="#6c708e" d="M 730.644531 105.960938 C 749.246094 103.371094 766.390625 94.472656 779.332031 81.046875 C 785.964844 74.253906 791.625 66.488281 795.507812 57.914062 C 798.742188 51.121094 804.730469 38.988281 799.875 32.03125 C 797.609375 28.796875 793.730469 28.308594 790.816406 30.898438 C 785.316406 35.589844 786.125 46.265625 783.863281 53.0625 C 781.273438 60.824219 777.554688 68.105469 772.863281 74.738281 C 762.347656 89.136719 747.304688 99.652344 730.160156 104.34375 C 729.027344 104.503906 729.511719 106.121094 730.644531 105.960938 Z M 730.644531 105.960938 " fill-opacity="1" fill-rule="nonzero"/></svg>